<svg width="773" height="130" viewBox="0 0 773 130" fill="none" xmlns="http://www.w3.org/2000/svg">
<path d="M10.6104 64.7534H16.3381C17.1832 64.7534 17.997 64.6908 18.7794 64.5656C19.5619 64.4404 20.2505 64.2057 20.8452 63.8614C21.4398 63.4858 21.9093 62.9694 22.2536 62.3121C22.6292 61.6548 22.817 60.7941 22.817 59.7299C22.817 58.6658 22.6292 57.8051 22.2536 57.1478C21.9093 56.4905 21.4398 55.9897 20.8452 55.6454C20.2505 55.2698 19.5619 55.0194 18.7794 54.8942C17.997 54.769 17.1832 54.7064 16.3381 54.7064H10.6104V64.7534ZM3.23945 48.9787H18.3569C20.4539 48.9787 22.238 49.2917 23.709 49.9177C25.1801 50.5124 26.3694 51.3105 27.2771 52.3121C28.2161 53.3136 28.889 54.4561 29.2959 55.7393C29.7341 57.0226 29.9532 58.3528 29.9532 59.7299C29.9532 61.0758 29.7341 62.406 29.2959 63.7206C28.889 65.0038 28.2161 66.1462 27.2771 67.1478C26.3694 68.1494 25.1801 68.9632 23.709 69.5891C22.238 70.1838 20.4539 70.4812 18.3569 70.4812H10.6104V82.5H3.23945V48.9787ZM43.9904 65.8802C43.9904 67.2887 44.1469 68.6658 44.4599 70.0117C44.8042 71.3262 45.3363 72.5156 46.0562 73.5798C46.7761 74.6439 47.715 75.5047 48.8731 76.1619C50.0312 76.7879 51.4396 77.1009 53.0985 77.1009C54.7573 77.1009 56.1658 76.7879 57.3238 76.1619C58.4819 75.5047 59.4209 74.6439 60.1408 73.5798C60.8606 72.5156 61.3771 71.3262 61.6901 70.0117C62.0343 68.6658 62.2065 67.2887 62.2065 65.8802C62.2065 64.4092 62.0343 62.985 61.6901 61.6079C61.3771 60.2307 60.8606 59.0101 60.1408 57.9459C59.4209 56.8504 58.4819 55.9897 57.3238 55.3637C56.1658 54.7064 54.7573 54.3778 53.0985 54.3778C51.4396 54.3778 50.0312 54.7064 48.8731 55.3637C47.715 55.9897 46.7761 56.8504 46.0562 57.9459C45.3363 59.0101 44.8042 60.2307 44.4599 61.6079C44.1469 62.985 43.9904 64.4092 43.9904 65.8802ZM36.6195 65.8802C36.6195 63.3763 36.9951 61.0602 37.7463 58.9318C38.4975 56.7722 39.5773 54.8942 40.9857 53.298C42.3942 51.7017 44.1156 50.4498 46.1501 49.5421C48.2158 48.6344 50.5319 48.1806 53.0985 48.1806C55.6963 48.1806 58.0124 48.6344 60.0469 49.5421C62.0813 50.4498 63.8027 51.7017 65.2112 53.298C66.6197 54.8942 67.6995 56.7722 68.4506 58.9318C69.2018 61.0602 69.5774 63.3763 69.5774 65.8802C69.5774 68.3215 69.2018 70.6064 68.4506 72.7347C67.6995 74.8317 66.6197 76.6627 65.2112 78.2277C63.8027 79.7926 62.0813 81.0289 60.0469 81.9366C58.0124 82.813 55.6963 83.2512 53.0985 83.2512C50.5319 83.2512 48.2158 82.813 46.1501 81.9366C44.1156 81.0289 42.3942 79.7926 40.9857 78.2277C39.5773 76.6627 38.4975 74.8317 37.7463 72.7347C36.9951 70.6064 36.6195 68.3215 36.6195 65.8802ZM110.062 82.5H102.738L97.0574 59.683H96.9635L91.3766 82.5H83.9118L75.0385 48.9787H82.4094L87.7146 71.7957H87.8085L93.6301 48.9787H100.532L106.259 72.0774H106.353L111.846 48.9787H119.076L110.062 82.5ZM125.993 48.9787H151.064V55.1759H133.364V62.3591H149.609V68.0868H133.364V76.3028H151.44V82.5H125.993V48.9787ZM167.329 64.1431H175.404C177.094 64.1431 178.362 63.7675 179.207 63.0163C180.052 62.2652 180.474 61.0445 180.474 59.3544C180.474 57.7268 180.052 56.5531 179.207 55.8332C178.362 55.082 177.094 54.7064 175.404 54.7064H167.329V64.1431ZM159.958 48.9787H178.033C179.535 48.9787 180.881 49.2291 182.071 49.7299C183.291 50.1994 184.324 50.8567 185.169 51.7017C186.046 52.5468 186.703 53.5327 187.141 54.6595C187.611 55.755 187.845 56.9443 187.845 58.2276C187.845 60.1994 187.423 61.9052 186.578 63.345C185.764 64.7847 184.418 65.8802 182.54 66.6314V66.7253C183.448 66.9757 184.199 67.3669 184.794 67.899C185.388 68.3998 185.873 69.0101 186.249 69.73C186.625 70.4186 186.891 71.1854 187.047 72.0305C187.235 72.8755 187.36 73.7206 187.423 74.5657C187.454 75.0978 187.485 75.7238 187.517 76.4436C187.548 77.1635 187.595 77.899 187.657 78.6502C187.751 79.4014 187.877 80.1213 188.033 80.8099C188.221 81.4671 188.487 82.0305 188.831 82.5H181.46C181.053 81.4358 180.803 80.1682 180.709 78.6972C180.615 77.2261 180.474 75.8177 180.287 74.4718C180.036 72.719 179.504 71.4358 178.69 70.622C177.877 69.8082 176.546 69.4013 174.7 69.4013H167.329V82.5H159.958V48.9787ZM197.361 48.9787H222.431V55.1759H204.732V62.3591H220.976V68.0868H204.732V76.3028H222.807V82.5H197.361V48.9787ZM238.696 76.3028H245.269C246.333 76.3028 247.366 76.1306 248.367 75.7864C249.369 75.4421 250.261 74.8787 251.044 74.0962C251.826 73.2824 252.452 72.2339 252.921 70.9507C253.391 69.6674 253.626 68.1024 253.626 66.2558C253.626 64.5656 253.454 63.0476 253.109 61.7018C252.796 60.3246 252.264 59.1509 251.513 58.1806C250.762 57.2104 249.76 56.4748 248.508 55.9741C247.288 55.442 245.77 55.1759 243.954 55.1759H238.696V76.3028ZM231.325 48.9787H245.785C247.945 48.9787 249.948 49.323 251.795 50.0116C253.673 50.7002 255.285 51.733 256.63 53.1102C258.008 54.4874 259.072 56.2088 259.823 58.2745C260.605 60.3403 260.997 62.7659 260.997 65.5516C260.997 67.9929 260.684 70.2464 260.058 72.3122C259.432 74.3779 258.477 76.1619 257.194 77.6643C255.942 79.1667 254.361 80.356 252.452 81.2324C250.574 82.0775 248.352 82.5 245.785 82.5H231.325V48.9787ZM293.604 62.5469H301.069C302.383 62.5469 303.463 62.2339 304.308 61.6079C305.153 60.9819 305.576 59.9647 305.576 58.5562C305.576 57.7738 305.435 57.1321 305.153 56.6313C304.872 56.1306 304.496 55.7393 304.026 55.4576C303.557 55.1759 303.009 54.9881 302.383 54.8942C301.789 54.769 301.163 54.7064 300.505 54.7064H293.604V62.5469ZM286.233 48.9787H302.008C303.604 48.9787 305.059 49.1196 306.374 49.4013C307.688 49.6829 308.815 50.1524 309.754 50.8097C310.693 51.4357 311.413 52.2808 311.914 53.3449C312.446 54.4091 312.712 55.7237 312.712 57.2886C312.712 58.9788 312.321 60.3872 311.538 61.514C310.787 62.6408 309.66 63.5641 308.158 64.284C310.224 64.8786 311.757 65.9272 312.759 67.4295C313.792 68.9006 314.308 70.6846 314.308 72.7816C314.308 74.4718 313.98 75.9428 313.322 77.1948C312.665 78.4155 311.773 79.417 310.646 80.1995C309.551 80.982 308.283 81.561 306.843 81.9366C305.435 82.3122 303.98 82.5 302.477 82.5H286.233V48.9787ZM293.604 76.7723H301.491C302.211 76.7723 302.9 76.7097 303.557 76.5845C304.214 76.428 304.793 76.1932 305.294 75.8803C305.795 75.536 306.186 75.0821 306.468 74.5187C306.781 73.9554 306.937 73.2355 306.937 72.3591C306.937 70.6377 306.452 69.417 305.482 68.6971C304.512 67.9459 303.228 67.5704 301.632 67.5704H293.604V76.7723ZM331.496 69.4483L319.196 48.9787H327.459L335.299 62.2182L343.092 48.9787H351.308L338.867 69.6361V82.5H331.496V69.4483Z" fill="#333739"/>
<path d="M470.869 3.82812C481.586 3.82812 490.274 12.5157 490.274 23.2324C490.274 33.9493 481.586 42.6377 470.869 42.6377C460.152 42.6375 451.465 33.9492 451.465 23.2324C451.465 12.5158 460.153 3.8283 470.869 3.82812Z" stroke="#16C0B7" stroke-width="7.65624"/>
<path fill-rule="evenodd" clip-rule="evenodd" d="M409.092 63.1042L435.347 109.534H382.836L409.092 63.1042Z" fill="#2096D9"/>
<rect x="447.691" y="63.4268" width="46.3334" height="46.3334" fill="#F7901E"/>
<path d="M419.171 3.05835H383L399.028 24.1762H435.199L419.171 3.05835Z" fill="#FF0003"/>
<path d="M435.199 24.1763H399.028L383 45.2941H419.171L435.199 24.1763Z" fill="#780000"/>
<path d="M529.617 104.444V15.4366H546.077L573.023 52.8683L601.067 15.4366H616.795V104.444H600.213V42.0168L572.901 78.8389L546.199 42.6264V104.444H529.617Z" fill="#333739"/>
<path d="M626.531 104.444V33.1161H643.114V104.444H626.531ZM624.459 15.6805C624.459 9.46218 628.482 5.31665 634.822 5.31665C641.285 5.31665 645.186 9.46218 645.186 15.6805C645.186 21.8988 641.285 25.9224 634.822 25.9224C628.116 25.9224 624.459 21.8988 624.459 15.6805Z" fill="#333739"/>
<path d="M652.608 104.444V33.1161H668.946V41.8949C673.701 35.6766 681.017 31.653 690.283 31.653C708.207 31.653 718.57 42.7484 718.57 62.1348V104.444H701.866V63.8418C701.866 52.7464 696.502 45.9185 685.772 45.9185C676.384 45.9185 669.068 52.7464 669.068 65.3049V104.444H652.608Z" fill="#333739"/>
<path d="M722.442 47.8693V33.1161H734.634V22.2646L751.216 10.9253V33.1161H765.726V47.8693H751.216V74.5714C751.216 87.008 753.045 88.9589 765.726 88.9589V104.444H763.409C741.34 104.444 734.634 97.3718 734.634 74.6933V47.8693H722.442Z" fill="#333739"/>
</svg>
