<svg width="449" height="217" viewBox="0 0 449 217" fill="none" xmlns="http://www.w3.org/2000/svg">
<path d="M103.186 92.761C115.747 92.761 125.931 102.944 125.931 115.506C125.931 128.068 115.747 138.251 103.186 138.251C90.6238 138.251 80.4404 128.068 80.4404 115.506C80.4406 102.944 90.6239 92.7611 103.186 92.761Z" stroke="#16C0B7" stroke-width="8.97488"/>
<path fill-rule="evenodd" clip-rule="evenodd" d="M30.776 162.398L61.5521 216.938H0L30.776 162.398Z" fill="#2096D9"/>
<rect x="76.0352" y="162.627" width="54.3107" height="54.3107" fill="#F7901E"/>
<path d="M43.0455 92.1001H1.60352L19.967 116.295H61.409L43.0455 92.1001Z" fill="#FF0000"/>
<path d="M61.409 116.295H19.967L1.60352 140.49H43.0455L61.409 116.295Z" fill="#780000"/>
<path d="M172.226 209.532V105.195H191.521L223.108 149.074L255.981 105.195H274.419V209.532H254.981V136.353L222.965 179.517L191.664 137.068V209.532H172.226Z" fill="#333739"/>
<path d="M285.832 209.532V125.919H305.27V209.532H285.832ZM283.402 105.481C283.402 98.1917 288.119 93.3322 295.551 93.3322C303.126 93.3322 307.7 98.1917 307.7 105.481C307.7 112.77 303.126 117.487 295.551 117.487C287.69 117.487 283.402 112.77 283.402 105.481Z" fill="#333739"/>
<path d="M316.399 209.532V125.919H335.552V136.21C341.126 128.921 349.701 124.204 360.564 124.204C381.574 124.204 393.723 137.211 393.723 159.936V209.532H374.142V161.937C374.142 148.931 367.853 140.927 355.276 140.927C344.27 140.927 335.695 148.931 335.695 163.652V209.532H316.399Z" fill="#333739"/>
<path d="M398.261 143.214V125.919H412.553V113.199L431.992 99.9068V125.919H449V143.214H431.992V174.515C431.992 189.093 434.135 191.38 449 191.38V209.532H446.284C420.414 209.532 412.553 201.242 412.553 174.658V143.214H398.261Z" fill="#333739"/>
<path d="M6.76321 13.5465H11.445C12.1358 13.5465 12.8009 13.4953 13.4405 13.393C14.0801 13.2907 14.6429 13.0988 15.129 12.8174C15.6151 12.5104 15.9989 12.0882 16.2803 11.551C16.5873 11.0137 16.7408 10.3102 16.7408 9.44033C16.7408 8.57049 16.5873 7.86694 16.2803 7.32969C15.9989 6.79243 15.6151 6.3831 15.129 6.10168C14.6429 5.79467 14.0801 5.59001 13.4405 5.48767C12.8009 5.38534 12.1358 5.33417 11.445 5.33417H6.76321V13.5465ZM0.738281 0.652379H13.0951C14.8092 0.652379 16.2675 0.908215 17.4699 1.41989C18.6724 1.90597 19.6445 2.55836 20.3864 3.37703C21.154 4.1957 21.704 5.1295 22.0366 6.17843C22.3948 7.22735 22.5738 8.31465 22.5738 9.44033C22.5738 10.5404 22.3948 11.6277 22.0366 12.7022C21.704 13.7512 21.154 14.685 20.3864 15.5036C19.6445 16.3223 18.6724 16.9875 17.4699 17.4992C16.2675 17.9852 14.8092 18.2283 13.0951 18.2283H6.76321V28.0524H0.738281V0.652379Z" fill="#333739"/>
<path d="M34.0478 14.4675C34.0478 15.6188 34.1757 16.7444 34.4315 17.8445C34.7129 18.919 35.1479 19.8912 35.7363 20.7611C36.3247 21.6309 37.0922 22.3344 38.0388 22.8717C38.9854 23.3834 40.1367 23.6392 41.4926 23.6392C42.8485 23.6392 43.9998 23.3834 44.9464 22.8717C45.893 22.3344 46.6605 21.6309 47.2489 20.7611C47.8373 19.8912 48.2594 18.919 48.5153 17.8445C48.7967 16.7444 48.9374 15.6188 48.9374 14.4675C48.9374 13.2651 48.7967 12.101 48.5153 10.9753C48.2594 9.84967 47.8373 8.85191 47.2489 7.98207C46.6605 7.08664 45.893 6.3831 44.9464 5.87143C43.9998 5.33417 42.8485 5.06554 41.4926 5.06554C40.1367 5.06554 38.9854 5.33417 38.0388 5.87143C37.0922 6.3831 36.3247 7.08664 35.7363 7.98207C35.1479 8.85191 34.7129 9.84967 34.4315 10.9753C34.1757 12.101 34.0478 13.2651 34.0478 14.4675ZM28.0228 14.4675C28.0228 12.4208 28.3298 10.5276 28.9438 8.78795C29.5579 7.02268 30.4405 5.48767 31.5917 4.18291C32.743 2.87815 34.1501 1.85481 35.813 1.11288C37.5015 0.370961 39.3947 0 41.4926 0C43.616 0 45.5092 0.370961 47.1721 1.11288C48.8351 1.85481 50.2422 2.87815 51.3934 4.18291C52.5447 5.48767 53.4273 7.02268 54.0413 8.78795C54.6553 10.5276 54.9623 12.4208 54.9623 14.4675C54.9623 16.463 54.6553 18.3306 54.0413 20.0703C53.4273 21.7844 52.5447 23.281 51.3934 24.5602C50.2422 25.8394 48.8351 26.8499 47.1721 27.5919C45.5092 28.3082 43.616 28.6664 41.4926 28.6664C39.3947 28.6664 37.5015 28.3082 35.813 27.5919C34.1501 26.8499 32.743 25.8394 31.5917 24.5602C30.4405 23.281 29.5579 21.7844 28.9438 20.0703C28.3298 18.3306 28.0228 16.463 28.0228 14.4675Z" fill="#333739"/>
<path d="M88.0542 28.0524H82.0676L77.4242 9.40195H77.3474L72.7808 28.0524H66.6791L59.4262 0.652379H65.4511L69.7875 19.3028H69.8642L74.6228 0.652379H80.264L84.9457 19.533H85.0225L89.5124 0.652379H95.4222L88.0542 28.0524Z" fill="#333739"/>
<path d="M101.076 0.652379H121.569V5.71792H107.101V11.5893H120.379V16.2711H107.101V22.9868H121.876V28.0524H101.076V0.652379Z" fill="#333739"/>
<path d="M134.863 13.0476H141.464C142.845 13.0476 143.882 12.7406 144.572 12.1266C145.263 11.5126 145.608 10.5148 145.608 9.13333C145.608 7.80298 145.263 6.8436 144.572 6.25518C143.882 5.64117 142.845 5.33417 141.464 5.33417H134.863V13.0476ZM128.838 0.652379H143.613C144.841 0.652379 145.941 0.857048 146.913 1.26639C147.911 1.65014 148.755 2.18739 149.446 2.87815C150.162 3.56891 150.7 4.37479 151.058 5.29579C151.441 6.19122 151.633 7.16339 151.633 8.21232C151.633 9.82408 151.288 11.2184 150.597 12.3952C149.932 13.5721 148.832 14.4675 147.297 15.0815V15.1583C148.039 15.3629 148.653 15.6827 149.139 16.1176C149.625 16.527 150.022 17.0259 150.329 17.6143C150.636 18.1771 150.853 18.8039 150.981 19.4947C151.134 20.1854 151.237 20.8762 151.288 21.5669C151.314 22.0019 151.339 22.5135 151.365 23.1019C151.39 23.6904 151.429 24.2916 151.48 24.9056C151.557 25.5196 151.659 26.108 151.787 26.6709C151.94 27.2081 152.158 27.6686 152.439 28.0524H146.414C146.082 27.1825 145.877 26.1464 145.8 24.944C145.724 23.7415 145.608 22.5903 145.455 21.4902C145.25 20.0575 144.815 19.0086 144.15 18.3434C143.485 17.6782 142.398 17.3456 140.888 17.3456H134.863V28.0524H128.838V0.652379Z" fill="#333739"/>
<path d="M159.411 0.652379H179.904V5.71792H165.436V11.5893H178.714V16.2711H165.436V22.9868H180.211V28.0524H159.411V0.652379Z" fill="#333739"/>
<path d="M193.198 22.9868H198.571C199.441 22.9868 200.285 22.8461 201.104 22.5647C201.922 22.2833 202.651 21.8228 203.291 21.1832C203.931 20.518 204.442 19.661 204.826 18.612C205.21 17.5631 205.402 16.2839 205.402 14.7745C205.402 13.393 205.261 12.1522 204.98 11.0521C204.724 9.92642 204.289 8.96704 203.675 8.17395C203.061 7.38085 202.242 6.77964 201.219 6.37031C200.221 5.93538 198.98 5.71792 197.496 5.71792H193.198V22.9868ZM187.173 0.652379H198.993C200.758 0.652379 202.396 0.933798 203.905 1.49664C205.44 2.05948 206.758 2.90373 207.858 4.02941C208.983 5.15509 209.853 6.56218 210.467 8.2507C211.107 9.93921 211.427 11.9219 211.427 14.1989C211.427 16.1944 211.171 18.0364 210.659 19.7249C210.147 21.4134 209.367 22.8717 208.318 24.0997C207.295 25.3277 206.003 26.2999 204.442 27.0162C202.907 27.707 201.091 28.0524 198.993 28.0524H187.173V0.652379Z" fill="#333739"/>
<path d="M238.08 11.7429H244.181C245.256 11.7429 246.138 11.487 246.829 10.9753C247.52 10.4637 247.865 9.63221 247.865 8.48095C247.865 7.84136 247.75 7.3169 247.52 6.90756C247.29 6.49822 246.983 6.17843 246.599 5.94818C246.215 5.71792 245.767 5.56442 245.256 5.48767C244.77 5.38534 244.258 5.33417 243.721 5.33417H238.08V11.7429ZM232.055 0.652379H244.949C246.253 0.652379 247.443 0.767505 248.518 0.997757C249.592 1.22801 250.513 1.61176 251.281 2.14902C252.048 2.66069 252.637 3.35144 253.046 4.22128C253.481 5.09113 253.698 6.16564 253.698 7.44481C253.698 8.82633 253.378 9.97759 252.739 10.8986C252.125 11.8196 251.204 12.5743 249.976 13.1627C251.664 13.6488 252.918 14.5059 253.737 15.7339C254.581 16.9363 255.003 18.3946 255.003 20.1087C255.003 21.4902 254.734 22.6926 254.197 23.716C253.66 24.7137 252.931 25.5324 252.01 26.172C251.114 26.8116 250.078 27.2849 248.901 27.5919C247.75 27.8989 246.56 28.0524 245.332 28.0524H232.055V0.652379ZM238.08 23.3706H244.527C245.115 23.3706 245.678 23.3194 246.215 23.2171C246.752 23.0892 247.226 22.8973 247.635 22.6414C248.044 22.36 248.364 21.9891 248.594 21.5286C248.85 21.0681 248.978 20.4796 248.978 19.7633C248.978 18.3562 248.582 17.3584 247.788 16.77C246.995 16.156 245.946 15.849 244.642 15.849H238.08V23.3706Z" fill="#333739"/>
<path d="M269.052 17.384L258.998 0.652379H265.752L272.161 11.4742L278.531 0.652379H285.247L275.077 17.5375V28.0524H269.052V17.384Z" fill="#333739"/>
</svg>
